<?xml version="1.0" encoding="UTF-8"?>
<svg id="boot-flake" data-name="Boot Flake" xmlns="http://www.w3.org/2000/svg" viewBox="0 0 40.8 71.47">
  <defs>
    <style>
      .icon {
        fill: #fff;
        stroke-width: 0px;
      }
    </style>
  </defs>
  <g id="boot-flake-g" data-name="Boot Flake">
    <path class="icon" d="m0,55.68v-10.08c0-.99.8-1.79,1.79-1.79h7.03c.99,0,1.79-.8,1.79-1.79V5.25c0-.72.43-1.37,1.09-1.65L19.89.14c.38-.16.8-.19,1.19-.07l14.56,4.16c.48.14.89.47,1.11.92l3.87,7.75c.21.41.25.89.11,1.34l-11.07,35.44c-.05.17-.08.35-.08.53v19.47c0,1.36-1.45,2.22-2.64,1.58L.94,57.26c-.58-.31-.94-.92-.94-1.58Z"/>
  </g>
</svg>