<?xml version="1.0" encoding="UTF-8"?>
<svg id="b" data-name="Layer 2" xmlns="http://www.w3.org/2000/svg" viewBox="0 0 400 400">
  <defs>
    <style>
      .d, .e {
        stroke-width: 0px;
      }

      .e {
        fill: #fff;
      }
    </style>
  </defs>
  <g id="c" data-name="Layer 1">
    <g>
      <circle class="e" cx="200" cy="200" r="200"/>
      <path class="d" d="m356.78,128.36c-14.89-5.67-33.44-10.8-48.74-14.17-8.02-1.69-14.89-2.17-21.87-6.45-12.78-8.81-24.59-19.06-37.01-28.39-9.36-9.68-22.37-15.63-34.98-19.62-17.81-2.79-35.2,2.79-49.22,13.74-7.37,4.65-16.29,5.87-24.14,9.5-13.06,3.31-8.34,21.17-19.02,26.6-5.01,3.65-10.53,5.7-15.72,8.82-11.33,10.18-15.59,26.21-19.71,40.47-9.16,34.43-23.48,67.14-28.13,102.57-4.08,14.57-15.64,29.82-15.56,44.61.86,4.77,3.46.08,4.32-2.05,4.43-7.91,9.81-36.49,20.5-28.83,4.09,3.22,8.89,6.9,7.06,12.77-9.31,27.3,4.84,15.34,17.51,29.02,12.48,7.26,4.87,23.35,17.95,16.31,2.13-.83,2.82,2.15,5.15.17,5.9-6.24,9.78-15.32,12.7-23.25,4.31-17.77-.58-16.15-5.43-.32-4.55,12.37-2.62-2.31-1.59-6.49,1.2-6.76,4.45-12.4,6.82-18.99,1.82-5.06,1.8-10.57,3.44-15.65,1.62-4.92,4.95-9.43,6.29-15.02,1.94-4.58.89-13.88,5.01-16.44,9.94,13.83,17.04-30.35,21.2-36.38.72-1.57,1.72-3.18,2.07-.48,2.77,21.57-12.85,39.91-13.17,61.19.14,17.91,9.42-16.36,11.88-19.55,6.8-14.37,12.84,1.86,13.72,9.87,1.92,10.16-.97,20.9-1.64,31.28,4.75,5.64,13.07-20.16,14.82-24.54,7.32-12.17,7.67-25.14,9.77-39.03,1.96-5.95,8.73-10.86,3.83-17.01-10.23-8.35-9.36,14.48-11.19,19.88-1.52,4.06-6.73,20.87-11.97,12.05-3.47-6.49-6.85-13.82-7.53-21.15-1.17-12.43-1.33-24.97-2.78-37.38-1.52-3.42,4.09-35.6-2.12-30.08-.89,1.88-.92,5.73-1.98,7.67-2.9.93-4.55-10.18-5.07-12.39-.8-9.76,3.05-18.7,1.11-29.02-.68-5.95,1.75-11.28,2.38-17.06.59-6.18-.56-14.03,5.03-17.5,1.61-.87,3.11-.39,3.85,1.27,1.79,9.24.18,19.2,3.63,28.32,2,12.33,2.36,25.59,1.76,38.02-1.73,9.16-1.43,20.07,2.77,28.44,10.74,5.72.96-20.42,5.06-24.98,2.17.45,1.28,14.83,4.17,13.39,8.54-21.63,4.91-47.7,7.73-70.62,1.21-9.54-5.78-30.7,11.35-25.99,5.25,1.3,12.34,2.92,15.62,7.17,4.49,8.37-.62,25.69,5.72,33.26,2.92-7.8-.77-30.31,4.73-30.51,4.88,1.46,9.08,8.23,13.69,11.46,11.35,9.57,14.88,15.2,13.59,31.32-1.04,3.79.59,44.12,5.9,25.64,1.28-9.75-.34-20.6-.22-30.86-1.08-11.82,9.98-2.29,12.57,2.86,3.33,10.59-3.01,22.58-4.96,33.12-12.28,13.03-24.2,32.39-19.89,50.86,1.54,6.69,3.43,5.01,3.53-.75,1.16-37.45,13.5-33.68,13.22,11.52,1,14.5,4.48-6.89,5.79-8.62,1.09-.85,1.86.43,2.85,2.34,4.14,17.46,17.51,20.75,30.16,30.24,4.88,3.36,4.29,9.61,5.29,14.72,2.73,4.86,13.95-.61,7.55-9.18-8.52-15.52-4.67-34.85-8.41-52.05-5.1-18.43-28.5-6.61-27.91-30.63-2.8-9.68-.13-19.08-.45-28.94v-.17c-.91-7.34,1.19-12.51,9.07-11.07,5.75.6-.96,1.83-2.26,3.28-2.5,2.63,11.75,5.54,22.15,8.15,7.99,2.02,13.05,3.77,19.55,6.58,2.73.6,8.55,6.23,10.39,3.09-.66-7.45,3.68-5.47,6.62-.77,2.66,8,5.61,16.53,8.99,24.06,1.2,3.61,1.46,8.11,3.94,11.09,7.52,5.9,4.87-16.4,1.01-19.23-8.94-17.5-12.63-16.64,5.59-13.14,4.03-3-10.76-9.26-17.7-11.96Zm-240.7-6.6c-.6.49-1.19,1-1.76,1.53-.34.32-.67.65-.99.99-.19.2-.36.41-.54.61-.16.19-.33.38-.49.59,0,.01-.02.02-.03.04-.95,1.24-1.75,2.58-2.58,3.92-.69,1.12-1.4,2.22-2.25,3.25-.03.03-.05.06-.07.09-2.52,2.82-5.73,5.56-8.67,7.83-1.2.83-1.67.56-1.76-.14-.11-.87.37-2.4.75-3.25,2.02-4.7,5.58-9.15,9.41-12.5,2.56-2.32,5.85-3.36,8.78-5.04.57-.33,1.12-.67,1.65-1.06.11-.06.22-.14.34-.23.02-.02.04-.03.06-.04,2.16-1.61,6.36-6.91,8.42-5.81l.02.05c-.01.67-.55,1.42-1.27,2.15-.4.41-.87.81-1.33,1.18,0,0-.02.01-.02.02-.02.02-.04.03-.06.04-.5.4-.99.78-1.4,1.1-.06.05-.12.1-.18.14-.72.55-1.46,1.08-2.19,1.62-.57.41-1.14.83-1.7,1.24-.06.04-.11.08-.17.12-.63.47-1.26.95-1.87,1.45-.04.03-.08.07-.12.1Zm9.54,135.64c-.48.85-.99,1.69-1.48,2.52-.96,1.62-1.88,3.24-2.51,4.95-.17.45-.32.92-.45,1.39-.06.22-.11.44-.17.67-.06.26-.13.52-.19.78-.05.23-.09.47-.14.7-.06.3-.12.61-.17.91-.02.09-.03.18-.05.27-.2,1.18-.38,2.36-.59,3.52-.02.09-.03.18-.05.27-.06.33-.13.66-.21.98-.05.22-.11.44-.17.65-.06.23-.12.46-.19.68-.02.07-.03.14-.06.2-.05.15-.1.27-.15.4-.07.21-.14.43-.22.63-.17.37-.32.65-.47.89-.05.09-.1.17-.15.24-.03.04-.06.08-.09.12-.06.09-.13.16-.19.23-.04.04-.08.08-.12.11-.03.03-.06.05-.09.07-.47.33-.78-.12-.96-.89-.2-.76-.28-1.9-.22-3.18v-.13c-.38-5.66-.43-11.87-.16-18.2.21-5.08.63-10.22,1.28-15.21.78-5.87,2.3-17.05,5.36-21.94.57-.92,1.19-1.61,1.87-2.02.99-.33,1.89.03,2.7.74.75.65,1.41,1.61,1.97,2.62.73,1.3,1.3,2.68,1.69,3.62.02.04.03.08.05.11.25.69.48,1.38.67,2.08,2.9,10.45-.88,21.63-6.37,31.22Zm27.48-169.74c-.58,1.09-1.62,2.44-2.63,3.63-1.25,1.62-2.27,2.54-3.13,3.06-1.61,1.03-2.73.54-3.79.6-.62.06-1.23.32-1.96,1.17-.24.31-.46.64-.67.98-.17.28-.32.57-.47.87-.03.07-.07.13-.1.19-.17.36-.33.72-.48,1.1,0,0,0,.01,0,.02-.75,1.9-1.2,3.97-1.57,5.84l-.03.15c-.17,1.12-.74,2.59-1.16,2-.01-.02-.02-.04-.03-.06-.02-.04-.04-.07-.06-.11-.02-.04-.03-.09-.05-.13-.02-.05-.03-.09-.05-.14,0-.03-.02-.07-.02-.11-.05-.19-.09-.41-.12-.69,0-.02,0-.04,0-.07,0,0,0,0,0-.01-.02-.39-.01-.78,0-1.19,0-.23,0-.46.02-.69.06-1.27.18-2.59.23-3.88,0-.07,0-.14,0-.2.02-.62.03-1.24,0-1.84-.13-1.51-.22-2.76-.18-3.82.01-1.3.23-2.46,1.01-3.3.03-.03.07-.06.11-.09.82-.92,2.19-1.57,4.38-2.14.01,0,.03,0,.04,0,.95-.26,1.9-.48,2.79-.78.1-.02.21-.06.32-.09,2.88-1,6.08-2.42,7.44-2.29.06,0,.12-.01.18-.01.07.02.1.06.15.09.05.02.1.05.14.08.01.01.03.02.03.03.29.27.23.84-.33,1.84Zm39.97.27v.15c-.58,3.6-.93,7.36-1.14,11.2-.34,6.4-.29,13.04-.21,19.56.03,5,.07,9.81-.03,13.58-.08,3.48-.28,6.06-.7,7.07-.45,1.1-1.17.38-2.28-3.02-1.56-4.35-1.81-9.15-1.41-13.74.49-6.33-.08-12.78-.71-19.28-.68-6.98-1.45-14.02-1.06-21.02.87-7.07,3.28-6.6,5.14-3.67.02.04.05.07.08.11.03.05.06.1.09.15,1,1.67,1.83,4.04,2.13,6.27.02.17.04.34.06.5,0,.06.01.11.02.17.06.68.07,1.35.01,1.96Z"/>
    </g>
  </g>
</svg>