<?xml version="1.0" encoding="UTF-8"?>
<svg id="uuid-eaf2d40e-88c4-4e9f-98f2-a545878c98e5" data-name="Layer 2" xmlns="http://www.w3.org/2000/svg" viewBox="0 0 96.16 126.03">
  <defs>
    <style>
      .uuid-d541ad9f-dffe-4625-9f29-75dd85794866 {
        fill: #fff;
        stroke-width: 0px;
      }
    </style>
  </defs>
  <g id="uuid-97e2747e-f7f8-4ce1-af00-12a56e33481d" data-name="Layer 3">
    <path class="uuid-d541ad9f-dffe-4625-9f29-75dd85794866" d="m35.75,52.76c-2.1-2.02-14.82-13.95-16.56-15.58-.13-.12-.29-.21-.46-.25l-10.26-2.37c-1.44-.33-2.47-1.58-2.53-3.05-.09-2.12-.33-4.91-.94-5.52-.81-.81-3.56-2.91-4.6-3.7-.25-.19-.4-.49-.4-.81v-7.8c0-.42.25-.79.64-.94C5.28,10.95,33.82,0,43,0c10,0,18,3,21,7s2,6,8,6c4.91,0,18.52,2.01,23.31,2.74.76.12,1.12,1.01.64,1.62l-15.65,20.25c-.19.25-.49.39-.8.39h-2.76c-.44,0-.83.29-.97.71l-28.78,87.29c-.03.1-10-.04-10-1s2-19,2-29c0-7-2.95-42.66-2.95-42.66-.03-.22-.14-.42-.3-.58Z"/>
  </g>
</svg>