<?xml version="1.0" encoding="UTF-8"?>
<svg id="uuid-64cb01a9-dc13-447c-a477-95bd027d66e6" data-name="Layer 2" xmlns="http://www.w3.org/2000/svg" viewBox="0 0 49.79 91.89">
  <defs>
    <style>
      .uuid-fbda0165-5114-4d43-975c-3328880a966e {
        fill: #fff;
        stroke-width: 0px;
      }
    </style>
  </defs>
  <g id="uuid-bfcb4f6a-788c-4fbb-844f-d13769c2373d" data-name="Layer 3">
    <path class="uuid-fbda0165-5114-4d43-975c-3328880a966e" d="m20,0c-.69,0,.74,5.36,1,6,2,5,6,19,13,28,3.97,5.1,8,9.71,8,12s-7.71,11.14-10,18c-2.04,6.13-9,11-13,14-7.76,5.82-19,9.05-19,11.34s2.4,3.01,4.57,2.29c6.86-2.29,22.85-11.43,29.71-20.57,2.74-3.66,4.44-10.49,6.72-15.06,1-2,2.42-3.22,4.7-5.51l3.78-3.78c.42-.42.41-1.11-.04-1.52-1.57-1.42-5.67-6.34-6.74-7.79-3.86-5.19-10.7-15.41-14.7-25.41-.85-2.12-3-7-3-7C23,1,21,0,20,0Z"/>
  </g>
</svg>